<svg xmlns="http://www.w3.org/2000/svg" xmlns:xlink="http://www.w3.org/1999/xlink" width="940" zoomAndPan="magnify" viewBox="0 0 705 591.000005" height="788" preserveAspectRatio="xMidYMid meet" version="1.0"><defs><g/><clipPath id="822899a86a"><path d="M 148 118.765625 L 180 118.765625 L 180 136 L 148 136 Z M 148 118.765625 " clip-rule="nonzero"/></clipPath><clipPath id="b7600fad6a"><path d="M 148 118.765625 L 180 118.765625 L 180 150 L 148 150 Z M 148 118.765625 " clip-rule="nonzero"/></clipPath><clipPath id="954515d391"><path d="M 6.976562 362 L 38 362 L 38 394 L 6.976562 394 Z M 6.976562 362 " clip-rule="nonzero"/></clipPath><clipPath id="129d74e390"><path d="M 6.976562 199 L 38 199 L 38 230 L 6.976562 230 Z M 6.976562 199 " clip-rule="nonzero"/></clipPath><clipPath id="620ef0c7d4"><path d="M 0.59375 67 L 219 67 L 219 279 L 0.59375 279 Z M 0.59375 67 " clip-rule="nonzero"/></clipPath><clipPath id="3633cc25b4"><path d="M 0.59375 313 L 222 313 L 222 524 L 0.59375 524 Z M 0.59375 313 " clip-rule="nonzero"/></clipPath></defs><g fill="#ffffff" fill-opacity="1"><g transform="translate(326.922765, 289.075811)"><g><path d="M 23.070312 -28.90625 L 52.980469 -28.90625 L 52.980469 0 L 67.753906 0 L 67.753906 -71.402344 L 52.980469 -71.402344 L 52.980469 -43.226562 L 23.070312 -43.226562 L 23.070312 -71.402344 L 8.296875 -71.402344 L 8.296875 0 L 23.070312 0 Z M 23.070312 -28.90625 "/></g></g></g><g fill="#ffffff" fill-opacity="1"><g transform="translate(402.97146, 289.075811)"><g><path d="M 18.054688 -20.425781 L 53.4375 -20.425781 C 53.621094 -22.066406 53.621094 -23.800781 53.621094 -25.535156 C 53.621094 -39.941406 43.863281 -49.882812 29.363281 -49.882812 C 15.320312 -49.882812 3.554688 -38.484375 3.554688 -24.4375 C 3.554688 -9.300781 15.503906 1.09375 30.277344 1.09375 C 40.125 1.09375 47.144531 -2.554688 51.25 -9.941406 L 40.945312 -16.6875 C 38.757812 -13.039062 34.195312 -10.851562 30.09375 -10.851562 C 24.164062 -10.851562 18.96875 -14.316406 18.054688 -20.425781 Z M 39.394531 -29.820312 L 18.421875 -29.820312 C 18.96875 -33.011719 22.617188 -38.300781 29 -38.300781 C 36.113281 -38.300781 39.121094 -33.375 39.394531 -29.820312 Z M 39.394531 -29.820312 "/></g></g></g><g fill="#ffffff" fill-opacity="1"><g transform="translate(460.144754, 289.075811)"><g><path d="M 16.777344 0 L 26.171875 -14.316406 L 35.472656 0 L 51.433594 0 L 33.832031 -24.804688 L 50.976562 -48.695312 L 35.292969 -48.695312 L 26.261719 -34.925781 L 17.507812 -48.695312 L 1.550781 -48.695312 L 18.511719 -24.53125 L 1.003906 0 Z M 16.777344 0 "/></g></g></g><g fill="#ffffff" fill-opacity="1"><g transform="translate(512.57641, 289.075811)"><g><path d="M 20.246094 0.910156 C 25.535156 0.910156 31.1875 -0.910156 34.835938 -6.109375 L 35.015625 -6.019531 L 35.015625 0 L 48.148438 0 L 48.148438 -30.183594 C 48.148438 -43.316406 39.394531 -49.789062 26.992188 -49.789062 C 15.957031 -49.789062 8.570312 -45.414062 4.652344 -38.210938 L 15.503906 -31.734375 C 17.875 -36.019531 21.246094 -38.300781 26.355469 -38.300781 C 31.734375 -38.300781 34.195312 -35.382812 34.195312 -32.28125 C 34.195312 -30.277344 33.011719 -28.726562 30.367188 -28.726562 L 25.535156 -28.726562 C 15.683594 -28.726562 3.828125 -25.808594 3.828125 -13.769531 L 3.828125 -13.585938 C 3.828125 -4.558594 11.488281 0.910156 20.246094 0.910156 Z M 24.347656 -9.484375 C 20.972656 -9.484375 18.148438 -10.941406 18.148438 -14.410156 C 18.148438 -18.238281 21.703125 -19.972656 25.535156 -19.972656 L 34.105469 -19.972656 L 34.105469 -18.875 C 34.105469 -13.769531 30.640625 -9.484375 24.347656 -9.484375 Z M 24.347656 -9.484375 "/></g></g></g><g fill="#ffffff" fill-opacity="1"><g transform="translate(326.922765, 374.463976)"><g><path d="M 3.921875 -35.65625 C 3.921875 -14.863281 19.878906 1.003906 40.671875 1.003906 C 54.714844 1.003906 68.667969 -6.75 73.589844 -20.246094 L 60.003906 -26.535156 C 56.902344 -18.785156 49.789062 -13.3125 40.855469 -13.3125 C 28.179688 -13.3125 19.242188 -23.4375 19.242188 -35.839844 C 19.242188 -48.058594 28.453125 -58.089844 40.855469 -58.089844 C 49.789062 -58.089844 56.8125 -53.074219 59.820312 -45.230469 L 73.316406 -51.433594 C 68.484375 -64.835938 54.988281 -72.496094 40.945312 -72.496094 C 20.519531 -72.496094 3.921875 -56.265625 3.921875 -35.65625 Z M 3.921875 -35.65625 "/></g></g></g><g fill="#ffffff" fill-opacity="1"><g transform="translate(402.789086, 374.463976)"><g><path d="M 20.882812 -74.320312 L 6.566406 -74.320312 L 6.566406 0 L 20.882812 0 Z M 20.882812 -74.320312 "/></g></g></g><g fill="#ffffff" fill-opacity="1"><g transform="translate(430.235915, 374.463976)"><g><path d="M 4.832031 -65.65625 C 4.832031 -60.824219 8.84375 -56.902344 13.585938 -56.902344 C 18.601562 -56.902344 22.523438 -60.824219 22.523438 -65.65625 C 22.523438 -70.582031 18.601562 -74.503906 13.585938 -74.503906 C 8.84375 -74.503906 4.832031 -70.582031 4.832031 -65.65625 Z M 6.566406 0 L 6.566406 -48.695312 L 20.882812 -48.695312 L 20.882812 0 Z M 6.566406 0 "/></g></g></g><g fill="#ffffff" fill-opacity="1"><g transform="translate(457.682743, 374.463976)"><g><path d="M 60.277344 -36.476562 C 66.113281 -36.476562 68.210938 -32.464844 68.210938 -27.175781 L 68.210938 0 L 82.4375 0 L 82.4375 -30.367188 C 82.4375 -41.492188 77.238281 -49.789062 65.292969 -49.789062 C 58.269531 -49.789062 53.710938 -47.144531 49.152344 -42.039062 C 46.324219 -47.417969 40.761719 -49.789062 34.925781 -49.789062 C 29.363281 -49.789062 23.527344 -47.238281 20.699219 -42.3125 L 20.519531 -42.3125 L 20.519531 -48.695312 L 6.566406 -48.695312 L 6.566406 0 L 20.792969 0 L 20.792969 -26.992188 C 20.792969 -32.554688 23.617188 -36.476562 29.453125 -36.476562 C 35.292969 -36.476562 37.386719 -32.28125 37.386719 -26.992188 L 37.386719 0 L 51.523438 0 L 51.523438 -27.175781 C 51.523438 -32.738281 54.53125 -36.476562 60.277344 -36.476562 Z M 60.277344 -36.476562 "/></g></g></g><g fill="#ffffff" fill-opacity="1"><g transform="translate(546.223847, 374.463976)"><g><path d="M 20.246094 0.910156 C 25.535156 0.910156 31.1875 -0.910156 34.835938 -6.109375 L 35.015625 -6.019531 L 35.015625 0 L 48.148438 0 L 48.148438 -30.183594 C 48.148438 -43.316406 39.394531 -49.789062 26.992188 -49.789062 C 15.957031 -49.789062 8.570312 -45.414062 4.652344 -38.210938 L 15.503906 -31.734375 C 17.875 -36.019531 21.246094 -38.300781 26.355469 -38.300781 C 31.734375 -38.300781 34.195312 -35.382812 34.195312 -32.28125 C 34.195312 -30.277344 33.011719 -28.726562 30.367188 -28.726562 L 25.535156 -28.726562 C 15.683594 -28.726562 3.828125 -25.808594 3.828125 -13.769531 L 3.828125 -13.585938 C 3.828125 -4.558594 11.488281 0.910156 20.246094 0.910156 Z M 24.347656 -9.484375 C 20.972656 -9.484375 18.148438 -10.941406 18.148438 -14.410156 C 18.148438 -18.238281 21.703125 -19.972656 25.535156 -19.972656 L 34.105469 -19.972656 L 34.105469 -18.875 C 34.105469 -13.769531 30.640625 -9.484375 24.347656 -9.484375 Z M 24.347656 -9.484375 "/></g></g></g><g fill="#ffffff" fill-opacity="1"><g transform="translate(600.479211, 374.463976)"><g><path d="M 36.660156 -0.273438 L 36.660156 -12.039062 C 35.472656 -11.765625 34.105469 -11.671875 33.375 -11.671875 C 27.996094 -11.671875 24.894531 -13.679688 24.894531 -19.421875 L 24.894531 -36.386719 L 36.933594 -36.386719 L 36.933594 -48.695312 L 24.894531 -48.695312 L 24.894531 -63.925781 L 10.851562 -63.925781 L 10.851562 -48.695312 L 1.914062 -48.695312 L 1.914062 -36.386719 L 10.667969 -36.386719 L 10.667969 -17.691406 C 10.667969 -6.566406 17.054688 0.636719 30.003906 0.636719 C 32.191406 0.636719 34.195312 0.457031 36.660156 -0.273438 Z M 36.660156 -0.273438 "/></g></g></g><g fill="#ffffff" fill-opacity="1"><g transform="translate(641.512682, 374.463976)"><g><path d="M 18.054688 -20.425781 L 53.4375 -20.425781 C 53.621094 -22.066406 53.621094 -23.800781 53.621094 -25.535156 C 53.621094 -39.941406 43.863281 -49.882812 29.363281 -49.882812 C 15.320312 -49.882812 3.554688 -38.484375 3.554688 -24.4375 C 3.554688 -9.300781 15.503906 1.09375 30.277344 1.09375 C 40.125 1.09375 47.144531 -2.554688 51.25 -9.941406 L 40.945312 -16.6875 C 38.757812 -13.039062 34.195312 -10.851562 30.09375 -10.851562 C 24.164062 -10.851562 18.96875 -14.316406 18.054688 -20.425781 Z M 39.394531 -29.820312 L 18.421875 -29.820312 C 18.96875 -33.011719 22.617188 -38.300781 29 -38.300781 C 36.113281 -38.300781 39.121094 -33.375 39.394531 -29.820312 Z M 39.394531 -29.820312 "/></g></g></g><path fill="#004aad" d="M 27.839844 363.53125 L 27.839844 374.757812 L 37.566406 380.371094 C 37.691406 379.566406 37.816406 378.742188 37.816406 377.902344 C 37.832031 371.308594 33.667969 365.730469 27.839844 363.53125 Z M 27.839844 363.53125 " fill-opacity="1" fill-rule="nonzero"/><path fill="#004aad" d="M 174.882812 145.152344 L 164.015625 138.875 L 153.164062 145.152344 C 155.953125 147.921875 159.777344 149.636719 164.015625 149.636719 C 168.25 149.636719 172.09375 147.921875 174.882812 145.152344 Z M 174.882812 145.152344 " fill-opacity="1" fill-rule="nonzero"/><g clip-path="url(#822899a86a)"><path fill="#004aad" d="M 166.746094 127.882812 L 179.351562 135.160156 C 179.367188 134.835938 179.4375 134.535156 179.4375 134.195312 C 179.4375 125.683594 172.539062 118.765625 164.011719 118.765625 C 155.503906 118.765625 148.585938 125.667969 148.585938 134.195312 C 148.585938 134.515625 148.660156 134.820312 148.675781 135.160156 L 161.277344 127.882812 C 162.992188 126.917969 165.066406 126.917969 166.746094 127.882812 Z M 166.746094 127.882812 " fill-opacity="1" fill-rule="nonzero"/></g><path fill="#004aad" d="M 300.203125 363.53125 C 294.375 365.730469 290.230469 371.324219 290.230469 377.921875 C 290.230469 378.761719 290.355469 379.582031 290.480469 380.386719 L 300.222656 374.773438 L 300.222656 363.53125 Z M 300.203125 363.53125 " fill-opacity="1" fill-rule="nonzero"/><path fill="#004aad" d="M 290.460938 216.847656 L 294.769531 214.363281 L 290.496094 211.894531 C 290.355469 212.753906 290.230469 213.628906 290.230469 214.542969 C 290.230469 215.328125 290.335938 216.097656 290.460938 216.847656 Z M 290.460938 216.847656 " fill-opacity="1" fill-rule="nonzero"/><path fill="#004aad" d="M 174.882812 145.152344 C 177.472656 142.578125 179.101562 139.054688 179.351562 135.160156 L 166.75 127.882812 C 165.066406 126.917969 162.996094 126.917969 161.3125 127.882812 L 148.710938 135.160156 C 148.960938 139.054688 150.570312 142.558594 153.179688 145.152344 L 164.03125 138.878906 Z M 174.882812 145.152344 " fill-opacity="1" fill-rule="nonzero"/><path fill="#004aad" d="M 27.839844 354.988281 L 27.839844 237.476562 C 26.089844 237.886719 24.285156 238.136719 22.40625 238.136719 C 20.53125 238.136719 18.722656 237.886719 16.972656 237.476562 L 16.972656 354.988281 C 18.722656 354.574219 20.53125 354.324219 22.40625 354.324219 C 24.285156 354.324219 26.089844 354.574219 27.839844 354.988281 Z M 27.839844 354.988281 " fill-opacity="1" fill-rule="nonzero"/><path fill="#004aad" d="M 145.941406 149.316406 C 143.617188 146.527344 141.9375 143.203125 141.082031 139.554688 L 39.425781 198.257812 C 41.945312 200.886719 43.859375 204.066406 44.949219 207.625 Z M 145.941406 149.316406 " fill-opacity="1" fill-rule="nonzero"/><path fill="#004aad" d="M 182.101562 442.933594 C 184.425781 445.722656 186.105469 449.046875 186.964844 452.691406 L 288.511719 394.0625 C 286.027344 391.417969 284.117188 388.214844 283.0625 384.640625 Z M 182.101562 442.933594 " fill-opacity="1" fill-rule="nonzero"/><path fill="#004aad" d="M 44.984375 384.660156 C 43.910156 388.234375 42.015625 391.433594 39.53125 394.078125 L 141.078125 452.710938 C 141.9375 449.0625 143.617188 445.738281 145.941406 442.949219 Z M 44.984375 384.660156 " fill-opacity="1" fill-rule="nonzero"/><path fill="#004aad" d="M 300.203125 237.457031 L 300.203125 354.96875 C 301.957031 354.558594 303.761719 354.308594 305.636719 354.308594 C 307.515625 354.308594 309.339844 354.558594 311.070312 354.96875 L 311.070312 237.457031 C 309.320312 237.871094 307.496094 238.121094 305.636719 238.121094 C 303.777344 238.121094 301.957031 237.886719 300.203125 237.457031 Z M 300.203125 237.457031 " fill-opacity="1" fill-rule="nonzero"/><path fill="#004aad" d="M 283.097656 207.625 C 284.1875 204.066406 286.117188 200.867188 288.621094 198.257812 L 186.964844 139.554688 C 186.105469 143.203125 184.425781 146.527344 182.101562 149.316406 Z M 283.097656 207.625 " fill-opacity="1" fill-rule="nonzero"/><g clip-path="url(#b7600fad6a)"><path fill="#004aad" d="M 164.03125 149.636719 C 172.550781 149.636719 179.457031 142.730469 179.457031 134.210938 C 179.457031 125.691406 172.550781 118.785156 164.03125 118.785156 C 155.511719 118.785156 148.605469 125.691406 148.605469 134.210938 C 148.605469 142.730469 155.511719 149.636719 164.03125 149.636719 Z M 164.03125 149.636719 " fill-opacity="1" fill-rule="nonzero"/></g><path fill="#004aad" d="M 164.03125 280.71875 C 166.160156 280.71875 168.195312 281.144531 170.039062 281.933594 C 168.179688 281.144531 166.160156 280.71875 164.03125 280.71875 Z M 164.03125 280.71875 " fill-opacity="1" fill-rule="nonzero"/><path fill="#004aad" d="M 179.136719 293.015625 C 178.3125 288.992188 175.9375 285.542969 172.648438 283.328125 C 175.9375 285.5625 178.3125 289.011719 179.136719 293.015625 Z M 179.136719 293.015625 " fill-opacity="1" fill-rule="nonzero"/><path fill="#004aad" d="M 158.023438 281.914062 C 159.777344 281.179688 161.707031 280.769531 163.710938 280.734375 C 161.707031 280.789062 159.777344 281.179688 158.023438 281.914062 Z M 158.023438 281.914062 " fill-opacity="1" fill-rule="nonzero"/><path fill="#004aad" d="M 164.03125 311.550781 C 166.160156 311.550781 168.195312 311.121094 170.039062 310.335938 C 168.179688 311.121094 166.160156 311.550781 164.03125 311.550781 Z M 164.03125 311.550781 " fill-opacity="1" fill-rule="nonzero"/><path fill="#004aad" d="M 179.136719 299.234375 C 178.527344 302.253906 177.027344 304.9375 174.933594 307.027344 C 177.027344 304.9375 178.511719 302.253906 179.136719 299.234375 Z M 179.136719 299.234375 " fill-opacity="1" fill-rule="nonzero"/><path fill="#004aad" d="M 155.398438 283.34375 C 152.734375 285.132812 150.730469 287.757812 149.605469 290.816406 C 150.730469 287.757812 152.753906 285.132812 155.398438 283.34375 Z M 155.398438 283.34375 " fill-opacity="1" fill-rule="nonzero"/><path fill="#004aad" d="M 179.4375 296.125 C 179.4375 295.050781 179.332031 294.015625 179.117188 293.015625 C 179.332031 294.035156 179.4375 295.070312 179.4375 296.125 Z M 179.4375 296.125 " fill-opacity="1" fill-rule="nonzero"/><path fill="#004aad" d="M 164.03125 267.113281 C 148.035156 267.113281 135.003906 280.125 135.003906 296.140625 C 135.003906 312.140625 148.015625 325.171875 164.03125 325.171875 C 180.046875 325.171875 193.058594 312.15625 193.058594 296.140625 C 193.042969 280.125 180.03125 267.113281 164.03125 267.113281 Z M 179.136719 299.234375 C 178.527344 302.253906 177.027344 304.9375 174.933594 307.027344 C 173.542969 308.421875 171.878906 309.546875 170.039062 310.335938 C 168.195312 311.121094 166.160156 311.550781 164.03125 311.550781 C 161.90625 311.550781 159.867188 311.121094 158.027344 310.335938 C 154.34375 308.78125 151.375 305.8125 149.820312 302.128906 C 149.035156 300.289062 148.605469 298.25 148.605469 296.125 C 148.605469 294.246094 149 292.476562 149.605469 290.816406 C 150.734375 287.757812 152.753906 285.132812 155.398438 283.34375 C 156.21875 282.789062 157.097656 282.308594 158.027344 281.914062 C 159.777344 281.179688 161.707031 280.769531 163.710938 280.734375 C 163.816406 280.734375 163.925781 280.699219 164.03125 280.699219 C 166.160156 280.699219 168.195312 281.128906 170.039062 281.914062 C 170.96875 282.308594 171.84375 282.789062 172.664062 283.34375 C 175.953125 285.558594 178.332031 289.011719 179.152344 293.03125 C 179.351562 294.03125 179.476562 295.070312 179.476562 296.140625 C 179.441406 297.195312 179.332031 298.234375 179.136719 299.234375 Z M 179.136719 299.234375 " fill-opacity="1" fill-rule="nonzero"/><path fill="#004aad" d="M 148.605469 296.125 C 148.605469 294.246094 149 292.476562 149.605469 290.816406 C 148.980469 292.476562 148.605469 294.246094 148.605469 296.125 Z M 148.605469 296.125 " fill-opacity="1" fill-rule="nonzero"/><path fill="#004aad" d="M 164.03125 280.71875 C 163.921875 280.71875 163.816406 280.753906 163.710938 280.753906 C 163.816406 280.734375 163.921875 280.71875 164.03125 280.71875 Z M 164.03125 280.71875 " fill-opacity="1" fill-rule="nonzero"/><path fill="#004aad" d="M 164.03125 311.550781 C 161.90625 311.550781 159.867188 311.121094 158.027344 310.335938 C 157.613281 310.15625 157.308594 309.796875 156.917969 309.585938 C 155.808594 316.394531 154.378906 323.203125 154.148438 330.050781 C 153.894531 337.523438 154.933594 345.046875 155.398438 352.539062 C 156.417969 368.644531 157.417969 384.765625 158.4375 400.871094 C 159.007812 410.007812 159.542969 419.160156 160.296875 428.292969 C 160.527344 431.132812 161.207031 433.976562 161.992188 436.730469 C 162.28125 437.710938 162.496094 439.304688 164.265625 439.304688 C 166.050781 439.304688 166.070312 437.640625 166.445312 436.621094 C 167.070312 434.941406 167.464844 433.101562 167.570312 431.3125 C 168.429688 417.78125 169.25 404.25 170 390.703125 C 170.914062 374.113281 171.519531 357.507812 172.71875 340.9375 C 173.46875 330.480469 172.699219 320.238281 170.464844 310.085938 C 170.324219 310.15625 170.214844 310.300781 170.054688 310.371094 C 168.179688 311.121094 166.160156 311.550781 164.03125 311.550781 Z M 164.03125 311.550781 " fill-opacity="1" fill-rule="nonzero"/><path fill="#004aad" d="M 149.605469 290.816406 C 150.484375 288.457031 152.019531 286.472656 153.84375 284.808594 C 148.410156 279.785156 142.957031 274.746094 136.414062 271.242188 C 108.871094 256.53125 81.234375 241.980469 53.617188 227.429688 C 50.417969 225.75 47.023438 224.371094 43.644531 223.066406 C 42.230469 222.515625 40.265625 221.800781 39.28125 223.371094 C 38.296875 224.960938 39.765625 226.410156 40.925781 227.429688 C 43.894531 230.003906 46.84375 232.632812 50.0625 234.867188 C 74.210938 251.5625 98.484375 268.078125 122.597656 284.828125 C 130.660156 290.421875 139.542969 293.996094 148.765625 296.910156 C 148.75 296.640625 148.605469 296.410156 148.605469 296.125 C 148.605469 294.246094 149 292.476562 149.605469 290.816406 Z M 149.605469 290.816406 " fill-opacity="1" fill-rule="nonzero"/><path fill="#004aad" d="M 288.960938 223.746094 C 288.726562 223.28125 287.671875 223.140625 286.976562 223.03125 C 286.476562 222.960938 285.902344 223.085938 285.4375 223.28125 C 282.542969 224.390625 279.539062 225.320312 276.804688 226.730469 C 251.707031 239.800781 226.664062 252.957031 201.605469 266.074219 C 195.0625 269.507812 188.359375 272.671875 182.695312 277.570312 C 179.886719 280 177.046875 282.394531 174.167969 284.84375 C 176.582031 287.007812 178.492188 289.742188 179.152344 293.03125 C 179.367188 294.03125 179.476562 295.070312 179.476562 296.140625 C 179.476562 296.410156 179.40625 296.640625 179.40625 296.910156 C 187.375 294.585938 195.222656 291.816406 202.140625 287.148438 C 224.394531 272.171875 246.523438 256.976562 268.671875 241.835938 C 273.765625 238.351562 278.824219 234.847656 283.757812 231.148438 C 285.652344 229.734375 287.226562 227.839844 288.78125 226.015625 C 289.175781 225.5 289.246094 224.335938 288.960938 223.746094 Z M 288.960938 223.746094 " fill-opacity="1" fill-rule="nonzero"/><path fill="#004aad" d="M 164.03125 473.480469 C 172.550781 473.480469 179.457031 466.574219 179.457031 458.054688 C 179.457031 449.535156 172.550781 442.628906 164.03125 442.628906 C 155.511719 442.628906 148.605469 449.535156 148.605469 458.054688 C 148.605469 466.574219 155.511719 473.480469 164.03125 473.480469 Z M 164.03125 473.480469 " fill-opacity="1" fill-rule="nonzero"/><path fill="#004aad" d="M 305.65625 393.328125 C 314.175781 393.328125 321.082031 386.421875 321.082031 377.902344 C 321.082031 369.382812 314.175781 362.476562 305.65625 362.476562 C 297.136719 362.476562 290.230469 369.382812 290.230469 377.902344 C 290.230469 386.421875 297.136719 393.328125 305.65625 393.328125 Z M 305.65625 393.328125 " fill-opacity="1" fill-rule="nonzero"/><path fill="#004aad" d="M 305.65625 229.96875 C 314.175781 229.96875 321.082031 223.0625 321.082031 214.542969 C 321.082031 206.023438 314.175781 199.117188 305.65625 199.117188 C 297.136719 199.117188 290.230469 206.023438 290.230469 214.542969 C 290.230469 223.0625 297.136719 229.96875 305.65625 229.96875 Z M 305.65625 229.96875 " fill-opacity="1" fill-rule="nonzero"/><g clip-path="url(#954515d391)"><path fill="#004aad" d="M 22.40625 393.328125 C 30.925781 393.328125 37.832031 386.421875 37.832031 377.902344 C 37.832031 369.382812 30.925781 362.476562 22.40625 362.476562 C 13.886719 362.476562 6.980469 369.382812 6.980469 377.902344 C 6.980469 386.421875 13.886719 393.328125 22.40625 393.328125 Z M 22.40625 393.328125 " fill-opacity="1" fill-rule="nonzero"/></g><g clip-path="url(#129d74e390)"><path fill="#004aad" d="M 22.40625 229.96875 C 30.925781 229.96875 37.832031 223.0625 37.832031 214.542969 C 37.832031 206.023438 30.925781 199.117188 22.40625 199.117188 C 13.886719 199.117188 6.980469 206.023438 6.980469 214.542969 C 6.980469 223.0625 13.886719 229.96875 22.40625 229.96875 Z M 22.40625 229.96875 " fill-opacity="1" fill-rule="nonzero"/></g><path stroke-linecap="butt" transform="matrix(0, 0.836452, -0.836452, 0, 313.60915, 236.861146)" fill="none" stroke-linejoin="miter" d="M -0.00211756 7.999478 L 142.914546 7.999478 " stroke="#004aad" stroke-width="16" stroke-opacity="1" stroke-miterlimit="4"/><path stroke-linecap="butt" transform="matrix(0, 0.836452, -0.836452, 0, 29.37403, 236.202436)" fill="none" stroke-linejoin="miter" d="M 0.00082368 7.998587 L 142.912817 7.998587 " stroke="#004aad" stroke-width="16" stroke-opacity="1" stroke-miterlimit="4"/><g clip-path="url(#620ef0c7d4)"><path stroke-linecap="butt" transform="matrix(-0.722974, 0.420667, -0.420667, -0.722974, 146.658257, 148.759361)" fill="none" stroke-linejoin="miter" d="M 0.000544351 7.998943 L 142.910411 7.99942 " stroke="#004aad" stroke-width="16" stroke-opacity="1" stroke-miterlimit="4"/></g><path stroke-linecap="butt" transform="matrix(-0.722974, 0.420667, -0.420667, -0.722974, 290.071967, 395.42234)" fill="none" stroke-linejoin="miter" d="M -0.00151713 8.001648 L 142.914734 8.000438 " stroke="#004aad" stroke-width="16" stroke-opacity="1" stroke-miterlimit="4"/><g clip-path="url(#3633cc25b4)"><path stroke-linecap="butt" transform="matrix(-0.729831, -0.408656, 0.408656, -0.729831, 142.062982, 453.931491)" fill="none" stroke-linejoin="miter" d="M -0.0003247 7.998941 L 142.91116 7.999982 " stroke="#004aad" stroke-width="16" stroke-opacity="1" stroke-miterlimit="4"/></g><path stroke-linecap="butt" transform="matrix(-0.729831, -0.408656, 0.408656, -0.729831, 283.927325, 207.742564)" fill="none" stroke-linejoin="miter" d="M 0.00223089 8.000908 L 142.911434 7.997873 " stroke="#004aad" stroke-width="16" stroke-opacity="1" stroke-miterlimit="4"/></svg>